# xmcd
#
# Track frame offsets:
# 150
# 8257
# 23287
# 31450
# 41410
# 48947
# 57162
# 69962
# 82327
# 92607
# 100542
# 110310
# 119860
# 126351
# 141005
# 163867
# 181392
# 193063
# 209556
# 224398
# 230524
# 246415
# 260185
# 274785
# 287324
# 300065
# 318465
#
# Disc length: 4364 seconds
#
#
# Revision: 0
# Processed by: cddbd v1.5.2PL0 Copyright (c) Steve Scherf et al.
# Submitted via: FreeRIP 2.944 
#
DISCID=7b110a1b
DTITLE=Ella Fitzgerald - Ella Fitzgerald's Christmas/Brighten the Corner
DYEAR=2006
DGENRE=Blues/Gospel
TTITLE0=O Holy Night
TTITLE1=It Came Upon A Midnight Clear
TTITLE2=Hark! The Herald Angels Sing
TTITLE3=Away In The Manger
TTITLE4=Joy To The World
TTITLE5=The First Noel
TTITLE6=Silent Night
TTITLE7=O Come All Ye Faithful
TTITLE8=Sleep, My Little Lord Jesus
TTITLE9=Angels We Have Heard On High
TTITLE10=O Little Town of Bethlehem
TTITLE11=We Three Kings
TTITLE12=God Rest Ye Merry, Gentlemen
TTITLE13=Abide With Me
TTITLE14=Just A Closer Walk With Thee
TTITLE15=The Old Rugged Cross
TTITLE16=Brighten The Corner (Where You Are)
TTITLE17=I Need Thee Every Hour
TTITLE18=In The Garden
TTITLE19=God Will Be With You Till We Meet Again
TTITLE20=God Will Take Care Of You
TTITLE21=The Church In The Wildwood
TTITLE22=Throw Out The Lifeline
TTITLE23=I Shall Not Be Moved
TTITLE24=Let The Lower Lights Be Burning
TTITLE25=What A Friend We Have In Jesus
TTITLE26=Rock Of Ages, Cleft For Me
EXTD=Originally recorded in 1967 on Capitol Records\nTracks 1-13 Digitally Remastered 2000\nTracks 14-27 Digitally Remastered 2006
EXTT0=
EXTT1=
EXTT2=
EXTT3=
EXTT4=
EXTT5=
EXTT6=
EXTT7=
EXTT8=
EXTT9=
EXTT10=
EXTT11=
EXTT12=
EXTT13=
EXTT14=
EXTT15=
EXTT16=
EXTT17=
EXTT18=
EXTT19=
EXTT20=
EXTT21=
EXTT22=
EXTT23=
EXTT24=
EXTT25=
EXTT26=
PLAYORDER=
